<svg width="58" height="67" viewBox="0 0 58 67" fill="none" xmlns="http://www.w3.org/2000/svg"><path d="M22.625 15.22H16.02L29 .52l12.98 14.698h-6.605v24.095H33.25v-26.22h4.02L29 3.73l-8.27 9.364h4.02v26.218h-2.125V15.22zM10.938 41.437h36.125v25.5H10.938v-25.5zm34 2.124H33.25v21.25h11.688v-21.25zm-25.5 1.603c0 .288.234.523.522.523h4.267a.524.524 0 00.523-.523v-1.602h-5.312v1.602zm-6.375 19.648h18.062v-21.25h-4.25v1.602a2.65 2.65 0 01-2.648 2.648H19.96a2.65 2.65 0 01-2.647-2.648v-1.602h-4.25v21.25zm-8.5 2.124h2.125v-35.06H4.61l5.265-6.77 5.265 6.77h-2.077v7.438h2.125V34h4.297l-9.61-12.356L.265 34h4.298v32.938zm38.25-38.25v10.625h2.125v-12.75H42.86l5.265-6.769 5.265 6.77h-2.077v40.374h2.125v-38.25h4.297l-9.61-12.355-9.61 12.355h4.298z" fill="#685ED6"/></svg>